<svg xmlns="http://www.w3.org/2000/svg" width="1200" height="272" viewBox="0 0 1200 272" role="img" aria-labelledby="title desc"><title id="title">CycleGAN-Q</title><desc id="desc">Hybrid quantum and classical generators for unpaired day-to-night image translation. Technologies: Qiskit, PyTorch, Image translation. Illustration is conceptual.</desc><defs><radialGradient id="glow"><stop stop-color="#9f88ff" stop-opacity=".18"/><stop offset="1" stop-color="#090d14" stop-opacity="0"/></radialGradient><linearGradient id="accent" x2="1" y2="1"><stop stop-color="#c5f58a"/><stop offset=".5" stop-color="#9bc5ec"/><stop offset="1" stop-color="#b9a4ff"/></linearGradient></defs><style>.orbit{transform-box:fill-box;transform-origin:center;animation:turn 60s linear infinite}.pulse{animation:breathe 5s ease-in-out infinite}@keyframes turn{to{transform:rotate(360deg)}}@keyframes breathe{50%{opacity:.35}}@media(prefers-reduced-motion:reduce){.orbit,.pulse{animation:none}}</style><rect x=".5" y=".5" width="1199" height="271" rx="20" fill="#090d14" stroke="#26323d"/><text x="28" y="37" font-family="'Courier New', monospace" font-size="12" fill="#91c7ff" font-weight="400" letter-spacing="1">03 / HYBRID MACHINE LEARNING</text><text x="1172" y="37" font-family="'Courier New', monospace" font-size="16" fill="#a4b1bf" font-weight="400" text-anchor="end">↗</text><text x="32" y="88" font-family="Arial, Helvetica, sans-serif" font-size="34" fill="#f1f0e8" font-weight="700" letter-spacing="-.8">CycleGAN-Q</text><text x="33" y="124" font-family="Arial, Helvetica, sans-serif" font-size="19" fill="#91c7ff" font-weight="400" >A quantum layer in the generative loop.</text><text x="33" y="162" font-family="Arial, Helvetica, sans-serif" font-size="17" fill="#a4b1bf" font-weight="400" >Hybrid quantum and classical generators for unpaired day-to-night image</text><text x="33" y="186" font-family="Arial, Helvetica, sans-serif" font-size="17" fill="#a4b1bf" font-weight="400" >translation.</text><text x="33" y="240" font-family="'Courier New', monospace" font-size="13" fill="#a4b1bf" font-weight="400" >Qiskit / PyTorch / Image translation</text><path d="M828,64 L828,239" stroke="#26323d" fill="none" /><g transform="translate(852 52)"><circle cx="168" cy="97" r="140" fill="url(#glow)" /><ellipse cx="106" cy="95" rx="28" ry="48.0" fill="none" stroke="#91c7ff" opacity="0.15"/><ellipse cx="106" cy="95" rx="30" ry="50.5" fill="none" stroke="#91c7ff" opacity="0.185"/><ellipse cx="106" cy="95" rx="32" ry="53.0" fill="none" stroke="#91c7ff" opacity="0.22"/><ellipse cx="106" cy="95" rx="34" ry="55.5" fill="none" stroke="#91c7ff" opacity="0.255"/><ellipse cx="106" cy="95" rx="36" ry="58.0" fill="none" stroke="#91c7ff" opacity="0.29000000000000004"/><ellipse cx="106" cy="95" rx="38" ry="60.5" fill="none" stroke="#91c7ff" opacity="0.325"/><ellipse cx="106" cy="95" rx="40" ry="63.0" fill="none" stroke="#91c7ff" opacity="0.36"/><ellipse cx="106" cy="95" rx="42" ry="65.5" fill="none" stroke="#91c7ff" opacity="0.395"/><ellipse cx="106" cy="95" rx="44" ry="68.0" fill="none" stroke="#91c7ff" opacity="0.43000000000000005"/><ellipse cx="106" cy="95" rx="46" ry="70.5" fill="none" stroke="#91c7ff" opacity="0.4650000000000001"/><ellipse cx="106" cy="95" rx="48" ry="73.0" fill="none" stroke="#91c7ff" opacity="0.5"/><ellipse cx="106" cy="95" rx="50" ry="75.5" fill="none" stroke="#91c7ff" opacity="0.535"/><ellipse cx="106" cy="95" rx="52" ry="78.0" fill="none" stroke="#91c7ff" opacity="0.5700000000000001"/><ellipse cx="222" cy="95" rx="28" ry="48.0" fill="none" stroke="#91c7ff" opacity="0.15"/><ellipse cx="222" cy="95" rx="30" ry="50.5" fill="none" stroke="#91c7ff" opacity="0.185"/><ellipse cx="222" cy="95" rx="32" ry="53.0" fill="none" stroke="#91c7ff" opacity="0.22"/><ellipse cx="222" cy="95" rx="34" ry="55.5" fill="none" stroke="#91c7ff" opacity="0.255"/><ellipse cx="222" cy="95" rx="36" ry="58.0" fill="none" stroke="#91c7ff" opacity="0.29000000000000004"/><ellipse cx="222" cy="95" rx="38" ry="60.5" fill="none" stroke="#91c7ff" opacity="0.325"/><ellipse cx="222" cy="95" rx="40" ry="63.0" fill="none" stroke="#91c7ff" opacity="0.36"/><ellipse cx="222" cy="95" rx="42" ry="65.5" fill="none" stroke="#91c7ff" opacity="0.395"/><ellipse cx="222" cy="95" rx="44" ry="68.0" fill="none" stroke="#91c7ff" opacity="0.43000000000000005"/><ellipse cx="222" cy="95" rx="46" ry="70.5" fill="none" stroke="#91c7ff" opacity="0.4650000000000001"/><ellipse cx="222" cy="95" rx="48" ry="73.0" fill="none" stroke="#91c7ff" opacity="0.5"/><ellipse cx="222" cy="95" rx="50" ry="75.5" fill="none" stroke="#91c7ff" opacity="0.535"/><ellipse cx="222" cy="95" rx="52" ry="78.0" fill="none" stroke="#91c7ff" opacity="0.5700000000000001"/><path d="M113.00,25.00 L186.00,25.00 L203.00,42.00" fill="none" stroke="#c5f58a" stroke-width="1" opacity="0.8"/><path d="M211.00,165.00 L142.00,165.00 L124.00,148.00" fill="none" stroke="#91c7ff" stroke-width="1" opacity="0.8"/><text x="146" y="101" font-family="Arial, Helvetica, sans-serif" font-size="30" fill="#c5f58a" font-weight="400" >↔</text></g></svg>
